<?xml version="1.0" encoding="UTF-8"?>
<svg width="200px" height="200px" viewBox="0 0 200 200" version="1.1" xmlns="http://www.w3.org/2000/svg" xmlns:xlink="http://www.w3.org/1999/xlink">
    <g id="plus" stroke="none" stroke-width="1" fill="none" fill-rule="evenodd" fill-opacity="0.804320435">
        <path d="M100.499988,52.5000121 C104.834902,52.5000121 108.364531,55.9478499 108.496181,60.2508328 L108.499988,60.5000121 L108.499,92.4990121 L140.499976,92.5 C144.918254,92.5 148.499976,96.081722 148.499976,100.5 C148.499976,104.834914 145.052138,108.364543 140.749155,108.496193 L140.499976,108.5 L108.499,108.499012 L108.499988,140.499988 C108.499988,144.918266 104.918266,148.499988 100.499988,148.499988 C96.1650736,148.499988 92.635445,145.05215 92.5037947,140.749167 L92.4999879,140.499988 L92.499,108.499012 L60.5,108.5 C56.081722,108.5 52.5,104.918278 52.5,100.5 C52.5,96.1650857 55.9478378,92.6354571 60.2508207,92.5038068 L60.5,92.5 L92.499,92.4990121 L92.4999879,60.5000121 C92.4999879,56.0817341 96.0817099,52.5000121 100.499988,52.5000121 Z" id="Combined-Shape" fill="#000000" fill-rule="nonzero"></path>
    </g>
</svg>